# ProBuilder 5.0.1
# https://unity3d.com/unity/features/worldbuilding/probuilder
# 3/28/2021 9:07:50 AM

mtllib ./trajectory_target.mtl
o trajectory_target

g Cylinder (1)
v -0.5 0 0
v -2.098871 2 0
v -0.25 0 0.4330127
v -1.049436 2 1.817673
v 0.25 0 0.4330127
v 1.049436 2 1.817673
v 0.5 0 -2.980232E-08
v 2.098871 2 0
v 0.2499999 0 -0.4330127
v 1.049436 2 -1.817673
v -0.25 0 -0.4330127
v -1.049436 2 -1.817673
v 0 0 0
v 0 2 0

vt -0.25 0.2464808
vt -1.049435 2.679029
vt 0.25 0.2464808
vt 1.049433 2.679028
vt -0.25 0.2464805
vt 0.25 0.2464805
vt -0.5 0
vt 0 0
vt -0.25 0.4330127
vt 2.098871 0
vt 1.049436 1.817673
vt 0.25 0.4330127
vt -1.049436 1.817673
vt 0.5 -2.980232E-08
vt -2.098871 0
vt 0.2499999 -0.4330127
vt -1.049436 -1.817673
vt -0.25 -0.4330127
vt 1.049436 -1.817673

vn -0.7810839 -0.624426 -1.634627E-07
vn -0.3905419 -0.6244256 0.6764389
vn 0.3905421 -0.6244256 0.6764388
vn 0.7810839 -0.624426 3.269254E-08
vn 0.3905419 -0.6244256 -0.6764389
vn -0.3905421 -0.6244255 -0.6764389
vn 0 -1 0
vn 0 1 0

usemtl Lit
f 1/7/7 13/8/7 3/9/7
f 3/9/7 13/8/7 5/12/7
f 5/12/7 13/8/7 7/14/7
f 7/14/7 13/8/7 9/16/7
f 9/16/7 13/8/7 11/18/7
f 11/18/7 13/8/7 1/7/7
f 4/11/8 14/8/8 2/10/8
f 6/13/8 14/8/8 4/11/8
f 8/15/8 14/8/8 6/13/8
f 10/17/8 14/8/8 8/15/8
f 12/19/8 14/8/8 10/17/8
f 2/10/8 14/8/8 12/19/8
f 4/4/2 2/2/1 1/1/1
f 1/1/1 3/3/2 4/4/2
f 6/4/3 4/2/2 3/5/2
f 3/5/2 5/3/3 6/4/3
f 8/4/4 6/2/3 5/5/3
f 5/5/3 7/3/4 8/4/4
f 10/4/5 8/2/4 7/5/4
f 7/5/4 9/3/5 10/4/5
f 12/4/6 10/2/5 9/1/5
f 9/1/5 11/6/6 12/4/6
f 2/4/1 12/2/6 11/5/6
f 11/5/6 1/3/1 2/4/1

